<svg width="42" height="42" viewBox="0 0 42 42" fill="none" xmlns="http://www.w3.org/2000/svg">
<path d="M29.4409 14.4291C30.4802 14.4283 31.3221 13.5852 31.3213 12.5459C31.3206 11.5066 30.4774 10.6647 29.4381 10.6655C28.3989 10.6663 27.557 11.5094 27.5577 12.5487C27.5585 13.588 28.4016 14.4299 29.4409 14.4291Z" fill="white"/>
<path d="M21.0681 12.8735C19.4754 12.8747 17.9189 13.3481 16.5953 14.2339C15.2717 15.1197 14.2405 16.3781 13.6321 17.8499C13.0237 19.3218 12.8654 20.941 13.1773 22.5028C13.4892 24.0647 14.2571 25.4989 15.3841 26.6243C16.5111 27.7496 17.9465 28.5155 19.5088 28.8251C21.0711 29.1346 22.6901 28.974 24.1611 28.3634C25.632 27.7529 26.8889 26.7198 27.7728 25.3949C28.6566 24.07 29.1278 22.5128 29.1266 20.9202C29.125 18.7845 28.2751 16.7369 26.7639 15.2278C25.2526 13.7188 23.2038 12.8719 21.0681 12.8735ZM21.0778 26.1533C20.044 26.1541 19.0331 25.8482 18.1731 25.2745C17.313 24.7008 16.6425 23.8849 16.2461 22.93C15.8498 21.9751 15.7455 20.9242 15.9464 19.91C16.1474 18.8959 16.6446 17.9641 17.3751 17.2326C18.1056 16.501 19.0366 16.0024 20.0505 15.8C21.0643 15.5976 22.1154 15.7003 23.0708 16.0952C24.0263 16.4902 24.8432 17.1596 25.4182 18.0188C25.9932 18.878 26.3005 19.8884 26.3013 20.9222C26.3023 22.3086 25.7525 23.6386 24.7729 24.6196C23.7934 25.6006 22.4642 26.1523 21.0778 26.1533Z" fill="white"/>
<path d="M21.0646 8.06894C25.2516 8.06587 25.7482 8.08118 27.4014 8.15576C28.3957 8.16684 29.3806 8.34868 30.3134 8.69334C30.99 8.9538 31.6047 9.35305 32.1178 9.86538C32.6309 10.3777 33.031 10.9918 33.2925 11.6681C33.6385 12.6003 33.8218 13.585 33.8343 14.5793C33.9113 16.2323 33.9274 16.7289 33.9304 20.9172C33.9335 25.1056 33.9182 25.5996 33.8436 27.2527C33.8325 28.247 33.6507 29.232 33.306 30.1647C33.0456 30.8414 32.6463 31.456 32.134 31.9691C31.6217 32.4822 31.0076 32.8824 30.3313 33.1438C29.3991 33.4898 28.4144 33.6731 27.4201 33.6857C25.7671 33.7627 25.2705 33.7787 21.0835 33.7818C16.8964 33.7849 16.3998 33.7696 14.7466 33.695C13.7524 33.6839 12.7674 33.5021 11.8347 33.1574C11.158 32.8969 10.5433 32.4977 10.0303 31.9854C9.51717 31.473 9.11702 30.859 8.85557 30.1827C8.50953 29.2505 8.32625 28.2658 8.31371 27.2715C8.2367 25.6184 8.22066 25.1218 8.21758 20.9348C8.21451 16.7478 8.22983 16.2512 8.30441 14.598C8.31548 13.6037 8.49732 12.6187 8.84198 11.686C9.10245 11.0094 9.50169 10.3947 10.014 9.88161C10.5263 9.36852 11.1404 8.96838 11.8167 8.70692C12.7489 8.36089 13.7336 8.17761 14.7279 8.16507C16.381 8.08806 16.8775 8.07202 21.0646 8.06894ZM21.0625 5.24361C16.8036 5.24674 16.2691 5.26543 14.5965 5.34245C13.2959 5.36967 12.0094 5.61717 10.7915 6.07445C9.74995 6.4781 8.80419 7.09493 8.01488 7.8854C7.22557 8.67587 6.61012 9.62254 6.208 10.6647C5.75237 11.8836 5.50676 13.171 5.4816 14.472C5.40703 16.1448 5.38912 16.6767 5.39225 20.9369C5.39538 25.1971 5.41407 25.7303 5.49109 27.4029C5.51831 28.7035 5.76581 29.99 6.22309 31.2078C6.62674 32.2494 7.24357 33.1952 8.03404 33.9845C8.82451 34.7738 9.77118 35.3893 10.8134 35.7914C12.0323 36.247 13.3196 36.4926 14.6207 36.5178C16.2934 36.5924 16.8266 36.6103 21.0855 36.6071C25.3444 36.604 25.8789 36.5853 27.5516 36.5083C28.8526 36.4812 30.1395 36.2337 31.3578 35.7763C32.3994 35.3726 33.3451 34.7558 34.1345 33.9653C34.9238 33.1749 35.5392 32.2282 35.9413 31.186C36.3965 29.967 36.6417 28.6797 36.6664 27.3787C36.741 25.706 36.7589 25.1741 36.7558 20.9139C36.7526 16.6536 36.734 16.1205 36.6569 14.4478C36.6297 13.1473 36.3822 11.8607 35.9249 10.6429C35.5213 9.60131 34.9045 8.65555 34.114 7.86624C33.3235 7.07692 32.3768 6.46148 31.3347 6.05936C30.1157 5.60418 28.8283 5.359 27.5274 5.33426C25.8546 5.25708 25.3227 5.24048 21.0625 5.24361Z" fill="white"/>
</svg>
